<?xml version="1.0" encoding="utf-8"?>
<!-- Generator: Adobe Illustrator 19.0.0, SVG Export Plug-In . SVG Version: 6.00 Build 0)  -->
<svg version="1.1" id="Calque_1" xmlns="http://www.w3.org/2000/svg" xmlns:xlink="http://www.w3.org/1999/xlink" x="0px" y="0px"
	 viewBox="0 0 300 300" style="enable-background:new 0 0 300 300;" xml:space="preserve">
<style type="text/css">
	.st0{fill:#FFFFFF;}
	.st1{opacity:0.5;}
	.st2{fill:#0B8772;}
	.st3{fill:#14DAB9;}
	.st4{fill:#0AB099;}
</style>
<rect id="XMLID_7_" class="st0" width="300" height="300"/>
<g id="XMLID_1_" class="st1">
	<path id="XMLID_2_" class="st2" d="M0.3,102.2c0,0-12.7-8-9.4-22.1c3.3-14,21.6-15.4,32.5-24.8c3.2-2.7,6.6-5.5,9-9
		c2.3-3.4,3.8-7.7,7.3-10c2.2-1.4,3.5,5.2,3.6,6.2c0.7,3.9,0.2,8.1-1.5,11.7c-1.9,4.2-5.1,6.2-8.8,8.8c-2.3,1.6-4.6,3.3-6.9,4.9
		c-2,1.5-5.3,5.1-7.8,5.7c0,0,19.5-4.8,27.4-13.2c7.9-8.4,11.1-29.1,11.1-29.1l2.2-5.5c1.1-1.2,7.2-6.6,6.7-1.9
		c-0.9,8.6-1.1,17.4-3.1,25.8c-1,4-2.3,8-4.7,11.3c-2.5,3.5-5.5,6.6-8.3,9.9c-4.3,4.9-9.3,9-13.5,14.1c-3.8,4.7-7.6,9.5-12.4,13.2
		c-4.2,3.3-10.2,7-15.7,7.1C5,105.5,2.6,103.7,0.3,102.2z"/>
	<path id="XMLID_3_" class="st3" d="M39.7,65.1c0,0,0.3-0.5,0.7-1.4c2.2-4.3,8.6-16.8,9.3-19.1c0.9-2.7,5.8-6.6,5.8-6.6
		c0,0.7-0.3,1.3-0.5,1.9c-0.2,0.7-0.4,1.5-0.7,2.2c-0.5,1.8-1,3.6-1.6,5.3c-0.8,2.3-1.9,4.5-3,6.7c-0.8,1.7-1.7,3.1-2.8,4.6
		c-0.3,0.4-0.6,0.8-0.9,1.3c-1,1.3-2.5,2.5-3.9,3.4c-0.6,0.4-1.1,0.7-1.7,1.1C40.4,64.7,39.8,64.9,39.7,65.1z"/>
	<g id="XMLID_4_">
		<path id="XMLID_5_" class="st4" d="M57.1-11.8c0,0,12.5,8.4,8.9,22.3c-3.6,13.9-21.9,14.9-33.1,24c-3.3,2.7-6.7,5.3-9.2,8.7
			c-2.4,3.3-3.9,7.6-7.6,9.8c-2.3,1.4-3.3-5.3-3.5-6.3c-0.6-3.9,0-8.1,1.7-11.6c2.1-4.1,5.3-6.1,9-8.6c2.4-1.6,4.7-3.2,7.1-4.8
			c2.1-1.4,5.4-4.9,7.9-5.5c0,0-19.6,4.3-27.7,12.5C2.5,37-1.3,57.6-1.3,57.6L-3.7,63c-1.2,1.2-7.4,6.5-6.8,1.7
			c1.1-8.5,1.5-17.4,3.8-25.7c1.1-3.9,2.5-7.9,5-11.2C1,24.4,4,21.4,7,18.2c4.4-4.8,9.6-8.8,13.9-13.7c4-4.6,7.9-9.3,12.7-12.9
			c4.3-3.2,10.4-6.7,15.9-6.7C52.4-15.2,54.8-13.4,57.1-11.8z"/>
		<path id="XMLID_6_" class="st3" d="M16.8,24.2c0,0-0.3,0.5-0.8,1.4c-2.3,4.2-9,16.6-9.8,18.8c-0.9,2.7-6,6.5-6,6.5
			c0-0.7,0.3-1.3,0.6-1.9c0.3-0.7,0.5-1.5,0.7-2.2c0.6-1.8,1.1-3.5,1.8-5.3c0.9-2.3,2-4.5,3.1-6.6c0.8-1.7,1.8-3.1,2.9-4.5
			c0.3-0.4,0.6-0.8,1-1.2c1.1-1.3,2.5-2.4,3.9-3.3c0.6-0.4,1.1-0.7,1.7-1.1C16.1,24.7,16.7,24.4,16.8,24.2z"/>
	</g>
</g>
</svg>
