<?xml version="1.0" encoding="utf-8"?>
<!-- Generator: Adobe Illustrator 19.0.0, SVG Export Plug-In . SVG Version: 6.00 Build 0)  -->
<svg version="1.1" id="Calque_1" xmlns="http://www.w3.org/2000/svg" xmlns:xlink="http://www.w3.org/1999/xlink" x="0px" y="0px"
	 viewBox="0 0 640 480" style="enable-background:new 0 0 640 480;" xml:space="preserve">
<style type="text/css">
	.st0{fill:#EBEBEC;}
	.st1{fill:#0B8772;}
	.st2{fill:#FFFFFF;}
	.st3{fill:#0CBCC0;}
</style>
<circle id="XMLID_93_" class="st0" cx="323.2" cy="250" r="203.2"/>
<circle id="XMLID_87_" class="st1" cx="333.7" cy="232.2" r="203.2"/>
<path id="XMLID_81_" class="st2" d="M407.4,115.4c-46.9,0-76,34-76.3,34.4l-1.4,1.6l-1.4-1.6c-0.1-0.1-2.2-2.5-6-6l20.9,156.9
	l16.9-62.1l10.9,22.6l11.3-16.6l8.7,22.9h40.1v12.6h-48.8l-3.2-8.4l-10,14.6l-5.7-11.8l-24.5,89.8l-21.2-159.7l-22.9,85.1l-9-14.9
	l-3.5,5.3H238v-12.6h37.5l10.7-16.3l4,6.7l31-115c-11.3-10-35.7-27.4-69.2-27.4c-21.6,0-42.9,11.9-56.9,32
	c-19.5,27.8-22.4,66.8-7.8,106.9c28.3,78,132.4,130.1,142.4,135c10-4.9,114.1-57,142.4-135.1c14.5-40.1,11.7-79.1-7.8-106.9
	C450.3,127.3,429,115.4,407.4,115.4z"/>
<polygon id="XMLID_80_" class="st3" points="286.1,257.9 277.4,271 241.6,271 241.6,276.4 280.3,276.4 285.9,268 293.5,280.5 
	318.9,186.2 340.2,346 362.5,264.2 369.7,279.1 380.1,263.9 384.8,276.4 427.5,276.4 427.5,271 388.6,271 381.5,252.3 370.5,268.4 
	361.1,248.8 342,318.8 320.7,158.8 291.5,266.9 "/>
</svg>
