<?xml version="1.0" encoding="utf-8"?>
<!-- Generator: Adobe Illustrator 19.0.0, SVG Export Plug-In . SVG Version: 6.00 Build 0)  -->
<svg version="1.1" id="Calque_1" xmlns="http://www.w3.org/2000/svg" xmlns:xlink="http://www.w3.org/1999/xlink" x="0px" y="0px"
	 viewBox="0 0 640 480" style="enable-background:new 0 0 640 480;" xml:space="preserve">
<style type="text/css">
	.st0{fill:#EBEBEC;}
	.st1{fill:#0B8772;}
	.st2{fill:#FFFFFF;}
	.st3{fill:#0AB099;}
</style>
<circle id="XMLID_93_" class="st0" cx="323.2" cy="250" r="203.2"/>
<circle id="XMLID_87_" class="st1" cx="333.7" cy="232.2" r="203.2"/>
<path id="XMLID_45_" class="st2" d="M243.9,295.6c0.1-0.6-0.6-2.1-2.2-3.3c-2.8-2-4.9-2.7-5.6-3.4c0.8,4.8,2.5,8.7,4.6,10.8
	c0.2-0.1,0.3-0.2,0.5-0.3c0.3-0.2,1.1-0.6,1.5-1.2C243.5,297.3,243.8,296.4,243.9,295.6 M238.7,211.2c-3.6-0.9-7-0.5-10.3,1.3
	c-6.8,20.6-4.6,40.2,6.7,59.6c2.2,0.3,4.2,0.2,6.1-0.1c0.7-0.1,1.3-0.3,2-0.5c0.7-0.2,1.4-0.5,2.1-0.8
	C235.8,252.7,234.3,233.5,238.7,211.2 M377.4,215.8c0.8-2.2,1.5-3.4,2.8-4.3c0.7-0.5,1.3-1.3,2.1-1.4c-3.2-0.2-4.9-0.3-5.1-0.2
	c-0.4,0.2-0.9,0.5-1.3,0.9c-1,0.9-1.8,2.3-2.4,4.2c-1.3,3.7-1.8,8-1.3,12.9c0.4,4.9,1.7,9,3.6,12.4c1,1.8,2,3.1,3.2,3.8
	c0.5,0.3,0.9,0.6,1.4,0.7c0.7,0.1,2.7-0.4,5.8-1.3c-0.3,0.1-0.5,0.1-0.8,0.1c-0.2,0-0.3,0-0.5,0c-2.1-0.1-3.6-2.5-5.3-5.4
	c-1.9-3.1-2.9-6.2-3.3-10.8C375.7,223,376.1,219.3,377.4,215.8z"/>
<path id="XMLID_39_" class="st3" d="M243.1,286.1c-0.3-0.3-0.7-0.9-1-1.1l-6,3.9c0.7,0.6,2.4,1.9,5.2,3.9c1.6,1.2,2.3,2.1,2.3,2.7
	c-0.1,0.8-0.5,1.7-1.2,2.7c-0.4,0.6-0.8,1-1.1,1.2l5.9-3.3c0.4-0.3,0.9-0.7,1.4-1.4c0.7-1,1.2-1.9,1.3-2.7c0-0.6-0.7-1.5-2.3-2.7
	C245.4,287.9,244,286.8,243.1,286.1 M178.4,226.5c-0.3,1.7-0.6,3.4-0.8,5c-1.3,10.5-0.4,20.8,2.8,31c0.9,3,2,6,3.4,8.9
	c2.3,4.5,5.7,6.6,10.2,6.1l0.4-0.1l2.3-0.3l2.5-0.4l32.3-4.2l0.8-0.1l1.1-0.1l1.7-0.2c-10.3-18.6-12.5-38.5-6.7-59.6l-41.4,5
	C183.1,218.5,180.2,221.5,178.4,226.5 M344,182c-6.1,14-8.4,30.4-6.6,49.2c1.7,18.8,6.8,34.5,15.4,47.1c2.1,3.1,4.3,5.9,6.6,8.2
	c1.7,1.8,3.4,3.2,5.2,4.5c5.3,3.8,10.8,5.4,16.7,4.9c10.4-0.9,18.6-8.4,24.8-22.4c6.1-13.9,8.4-30.3,6.7-49.1
	c-1.7-18.8-6.8-34.5-15.4-47.2c-8.6-12.6-18-18.4-28.4-17.5c-5.9,0.5-11.1,3.2-15.7,7.9C349.7,171.2,346.6,176,344,182 M345.8,230.4
	c-1.1-11.6-0.7-22.3,1.2-31.9c1-4.7,2.3-9.2,3.9-13.5c5-12.8,11.9-19.6,20.6-20.4c8.7-0.8,16.7,4.7,23.9,16.4
	c7.3,11.8,11.7,26.3,13.3,43.7c1.6,17.4-0.2,32.5-5.2,45.4c-5,12.9-11.9,19.7-20.6,20.5c-8.7,0.8-16.7-4.7-23.9-16.5
	c-2.4-3.9-4.5-8-6.2-12.5C349.2,252.5,346.8,242.1,345.8,230.4 M379.9,211c-1.2,0.9-2.3,2.4-3.1,4.6c-1.3,3.5-1.8,7.5-1.4,12.2
	c0.4,4.6,1.6,8.5,3.5,11.6c1.7,2.9,3.7,4.4,5.8,4.4c0.2,0,0.3,0,0.5,0c0.3,0,0.6-0.1,0.8-0.1c0,0,0.1,0,0.1,0
	c1.9-0.6,3.4-2.4,4.6-5.3c1.3-3.4,1.8-7.5,1.4-12.1c-0.4-4.5-1.5-8.2-3.3-11.3c-0.1-0.1-0.1-0.3-0.2-0.4c-1.3-2-2.6-3.3-4-3.9
	c-0.4-0.1-0.8-0.3-1.3-0.3c-0.4,0-0.7,0-1,0C381.5,210.3,380.6,210.5,379.9,211z"/>
<path id="XMLID_38_" class="st2" d="M231.7,284.4c-0.1-0.4-0.3-0.8-0.5-1.3c-0.3-1.1-0.6-2.1-0.9-3.1c-0.6,0.4-1.3,0.7-2.1,1
	c-4.5,1.4-9.4,2.3-14.8,2.8c-2.9,0.3-5.2,0.3-6.8,0.2c3.5,10.1,6,17.8,7.7,23.2c0.4,1.1,0.7,2.2,0.9,3.1c1.6,5.6,3.1,11.6,4.4,18
	c0,0.3,0.1,0.6,0.1,0.9c0.8,3.5,2.7,5.1,5.7,4.8c2.8-0.3,8.2-1.1,15.9-2.4c0.6-0.1,1.1-0.2,1.7-0.3c1.9-0.4,3.5-0.8,4.6-1.3
	c2.8-1.3,3.5-3.1,2.2-5.3c-0.6-0.9-2-3.6-4.3-8c-1.9-3.8-3.3-6.5-4-8.1c-0.6-1.3-1.2-2.7-1.9-4.1c-0.5-1.1-1-2.2-1.4-3.2
	c-0.6-1.3-1.2-2.5-1.7-3.7C234.7,292.9,233.1,288.5,231.7,284.4z"/>
<path id="XMLID_37_" class="st2" d="M230.3,280c2.2-1.5,2.6-4,1.2-7.4l-32.3,4.2c0.7,3.7,2.5,6,5.4,6.8c0.5,0.2,1.2,0.3,2.1,0.3
	c1.6,0.1,3.9,0,6.8-0.2c5.4-0.5,10.4-1.4,14.8-2.8C229,280.7,229.7,280.4,230.3,280z"/>
<path id="XMLID_36_" class="st2" d="M235.3,277.5c-1.3,0.5-2.9,1.8-5,2.5c0.4,1,0.7,2.1,0.9,3.1c0.2,0.4,0.4,0.8,0.5,1.3
	c1.4,4.1,3,8.5,4.9,13.2c0.5,1.2,1.1,2.4,1.7,3.7c0.4,1.1,0.9,2.1,1.4,3.2c0.7,1.5,1.3,2.8,1.9,4.1c0.8,1.5,2.1,4.2,4,8.1
	c2.3,4.5,3.7,7.1,4.3,8c1.3,2.2,0.6,4-2.2,5.3c9.1-3.3,13-6.1,11.6-8.4c-1.4-2.4-2.7-4.7-3.8-7.2c-0.6-1.2-2.1-4.3-4.5-9.5
	c-2.3-5.1-3.7-8-4-8.8l-5.9,3.3c-0.2,0.1-0.3,0.2-0.5,0.3c-1.8-2.3-3.3-5.9-4.6-10.8l6.1-3.6c0.3,0.2,0.6,0.4,0.9,0.7
	c-0.3-0.9-0.7-1.8-1-2.7c-0.5-1.3-0.9-2.6-1.3-3.9c-0.4-1.1-0.7-2.2-1.1-3.3C238.1,277,236.5,277,235.3,277.5z"/>
<path id="XMLID_35_" class="st2" d="M241.2,274.2c0.3-0.6,0.3-1.3,0.1-2.2c-1.9,0.3-3.9,0.4-6.1,0.1l-1.7,0.2l-1.1,0.1l-0.8,0.1
	c1.4,3.4,1.1,5.9-1.2,7.4c2.2-0.7,3.9-1.3,5.2-1.8c1.2-0.5,2.6-1.1,4.1-1.9C240.4,275.6,241,274.9,241.2,274.2z"/>
<path id="XMLID_34_" class="st1" d="M350.9,185.1c-1.7,4.3-3,8.7-3.9,13.5c5.7,7,15.3,11.1,28.9,12.3c0.4-0.4,0.8-0.7,1.3-0.9
	c0.3-0.1,2,0,5.1,0.2c0.3,0,0.7,0,1,0c0.4,0.1,0.8,0.2,1.3,0.3c1.4,0.6,2.8,2,4,3.9c0.1,0.1,0.2,0.2,0.2,0.4
	c1.8,3.1,2.9,6.9,3.3,11.3c0.4,4.6,0,8.7-1.4,12.1c-1.2,2.9-2.7,4.7-4.6,5.3c0,0-0.1,0-0.1,0c-3.1,0.9-5.1,1.4-5.8,1.3
	c-0.5-0.2-0.9-0.4-1.4-0.7c-13.1,3.7-21.8,9.5-26.1,17.4c1.8,4.5,3.8,8.6,6.2,12.5c7.3,11.8,15.2,17.2,23.9,16.5
	c8.7-0.8,15.5-7.6,20.6-20.5c5.1-12.8,6.8-28,5.2-45.4c-1.6-17.4-6-31.9-13.3-43.7c-7.3-11.7-15.2-17.2-23.9-16.4
	C362.8,165.4,356,172.2,350.9,185.1z"/>
<path id="XMLID_31_" class="st2" d="M347,198.6c-1.9,9.6-2.3,20.2-1.2,31.9c1.1,11.7,3.4,22.1,7,31.2c4.3-7.9,13.1-13.7,26.1-17.4
	c-1.1-0.8-2.2-2.1-3.2-3.8c-2-3.3-3.2-7.4-3.6-12.4c-0.4-4.9,0-9.2,1.3-12.9c0.6-1.9,1.5-3.3,2.4-4.2
	C362.4,209.6,352.7,205.5,347,198.6 M299,196c-1.8,0.6-3.6,1.2-5.5,1.8c-16.3,5.2-34.6,9.6-54.7,13.4c-6.2,22.2-4,42,6.6,59.5
	c18.2-1.1,36.3-0.4,54.1,2c0.3,0,0.6,0.1,0.9,0.1c17.5,2.4,32.1,5.8,43.8,10.3c11.9,4.6,18.7,7.2,20.4,7.8c-1.8-1.2-3.5-2.7-5.2-4.5
	c-2.2-2.3-4.4-5-6.6-8.2c-8.6-12.6-13.7-28.3-15.4-47.1c-1.7-18.8,0.5-35.2,6.6-49.2c2.6-6,5.7-10.8,9.1-14.4
	C334.8,180.6,316.7,190.1,299,196z"/>
<g id="XMLID_16_" transform="matrix( 0.9958953857421875, -0.0904998779296875, 0.0904998779296875, 0.9958953857421875, 38.05,-11.1) ">
	<g id="XMLID_17_">
		<g id="Layer0_3_MEMBER_0_FILL">
			<path id="XMLID_24_" class="st2" d="M293.9,214.5l0.1,1.1c0.3,0.8,0.9,1.2,1.8,1.2c1.3,0,2-0.7,2-2.2c0-1.7-0.7-2.5-2-2.4
				C294.6,212.2,293.9,213,293.9,214.5 M292.6,223.7c0.9-1.7,1.3-3,1.3-3.6c0-2.3-0.9-2.8-2.7-1.5c-1.9,1.4-2.8,3.4-2.8,5.9
				c0,1.4,0.7,2.1,2,2.1C291,226.5,291.7,225.6,292.6,223.7 M133.9,251.2c0,2.5,1.1,3.7,3.4,3.7c1.3,0,2.3-0.5,2.9-1.6
				c0.4-0.7,0.6-1.4,0.6-2.1c0-2.4-1.1-3.6-3.5-3.6C135,247.6,133.9,248.8,133.9,251.2 M159.2,252.9c1.3-0.5,1.9-1.6,1.9-3.3
				c0-3-2.8-4.2-8.3-3.5c-5.6,0.7-8.4,2.1-8.4,4.2c0,0.8,0.1,1.5,0.4,1.9c0.7,1.1,2,1.7,4.1,1.7
				C154.2,253.9,157.6,253.6,159.2,252.9z"/>
			<path id="XMLID_23_" class="st2" d="M171,246.5c-1.5,0.2-2.2,1.4-2.2,3.5c0,0.4,0.1,0.8,0.3,1.1c0.3,0.7,0.9,1,1.8,1
				c1.6,0,2.4-1,2.4-3.1C173.2,247.1,172.4,246.2,171,246.5z"/>
			<path id="XMLID_18_" class="st2" d="M303.6,257.7c0.7-0.7,1-1.5,1-2.3c0-2-1.5-3.6-4.6-4.7c-3-1.1-4.6-0.1-4.6,3.1
				c0,0,0.2,0.9,0.7,2.5c1,1.6,2.6,2.5,4.9,2.5C302.1,258.8,302.9,258.5,303.6,257.7 M202.9,249.1c5.1-1.2,7.7-2.5,7.7-4.1
				c0-2.7-1.4-3.8-4.2-3.3c-7.1,1.2-11.1,1.8-12,1.8c-2.2,0-3.6,0.2-4.2,0.5c-0.8,0.4-1.2,1.4-1.2,2.9c0,2.5,1.1,3.8,3.4,3.8
				C195.2,250.6,198.7,250.1,202.9,249.1 M236.6,241.2c0.6,1.1,1.6,1.7,3,1.7c1.6,0,2.9-0.6,3.7-1.8c0.6-0.8,0.8-1.6,0.8-2.5
				c0-2.7-1.3-3.8-4-3.5c-2.7,0.4-4,1.8-4,4.2C236.1,240,236.3,240.6,236.6,241.2 M264.9,235.9c4.9-2.4,7.3-4.6,7.3-6.6
				c0-3.4-4.2-3.4-12.5-0.1c-3,1.2-5.9,2.6-8.7,4.1c-2.6,1.5-3.9,2.4-3.9,2.8c0,0.7,0.2,1.3,0.5,1.9c0.6,1.1,1.6,1.6,3,1.6
				C255.1,239.6,259.9,238.3,264.9,235.9z"/>
		</g>
	</g>
</g>
<g id="XMLID_10_" transform="matrix( 1, 0, 0, 1, 0,0) ">
	<g id="XMLID_11_">
		<g id="Layer0_4_FILL">
			<path id="XMLID_12_" class="st2" d="M418.1,276c-2.8,3-2.7,5.9,0.3,8.7c5.9,6.4,12.7,13.8,20.2,22.2c3.3,3.6,6.1,6.7,8.3,9.2
				c2.6,2.6,5,2.7,7.2,0.2c3.2-3.6,6.4-7.3,9.7-11.2c2.6-3.6,2.7-6.4,0.1-8.5c-3.4-2.4-7.4-5.2-11.8-8.3
				c-10.8-7.6-18.9-13.1-24.1-16.7c-2.3-1.5-4.5-1.1-6.6,1C419.9,274.1,418.8,275.2,418.1,276 M425.8,134.5
				c-7.6,8.4-14.3,15.8-20.2,22.1c-3,2.9-3.1,5.8-0.3,8.8c0.7,0.7,1.8,1.8,3.1,3.3c2,2.1,4.2,2.4,6.5,1c5.3-3.6,13.4-9.2,24.1-16.7
				c4.5-3.1,8.5-5.9,12-8.3c2.6-2,2.6-4.8-0.1-8.4c-3.2-3.9-6.5-7.6-9.8-11.2c-2-2.5-4.4-2.4-7.1,0.1
				C431.8,127.7,429,130.8,425.8,134.5 M493.7,207.7c-0.2-3.3-2.1-4.6-5.7-4.1c-1.2,0.3-5.3,1.1-12.2,2.5c-4.3,0.9-12,2.3-23,4.2
				c-12.9,2.2-20,3.4-21.2,3.6c-4.1,0.5-6,2.8-5.5,6.8c0.1,1,0.3,2.5,0.6,4.5c0.3,2.9,1.8,4.4,4.6,4.6c3.8,0.2,13.1,0.1,28.1-0.2
				c15.7-0.3,25.9-0.5,30.6-0.3c3.3,0,5-2.2,4.9-6.7C494.4,217.6,494.1,212.6,493.7,207.7z"/>
		</g>
	</g>
</g>
<g id="XMLID_3_" transform="matrix( 1, 0, 0, 1, 0,0) ">
	<g id="XMLID_4_">
		<g id="Layer0_4_MEMBER_0_FILL">
			<path id="XMLID_5_" class="st2" d="M458.5,301c0.3-0.5,0.5-1,0.5-1.6c0-1.4-1.6-2.8-4.8-4.1c-3.2-1.3-4.8-0.5-4.8,2.3
				c0,0.1,0.3,0.9,1,2.3c1.2,1.4,3.2,2.1,5.9,2.1C457.3,302.1,458,301.7,458.5,301 M470.7,211.9l0.5,1.5c0.5,1,1.4,1.6,2.6,1.6
				c0.9,0,1.5-0.3,2-1c0.4-0.5,0.7-1.1,0.7-1.8c0-1.6-1-2.5-2.9-2.7C471.7,209.1,470.7,209.9,470.7,211.9 M488.3,212.2
				c0.4-0.3,0.6-1,0.6-2c0-2.3-1.6-3.2-4.8-2.9c-3.2,0.3-4.8,1.3-4.8,3.1c0,0.7,0.1,1.3,0.3,1.6c0.7,0.8,2.1,1.2,4.4,1.2
				C486.2,213.2,487.6,212.9,488.3,212.2 M437.8,135.8c1.6-1.9,2.4-3.3,2.4-4c0-4-1.5-4.6-4.4-1.7c-3,2.9-4.4,4.9-4.4,6.1
				c0,0.5,0.1,1,0.3,1.4c0.4,0.9,1.2,1.3,2.3,1.3C434.9,138.8,436.2,137.8,437.8,135.8z"/>
		</g>
	</g>
</g>
</svg>
